<svg xmlns="http://www.w3.org/2000/svg" width="40" height="40" viewBox="0 0 40 40" fill="none"><path d="M38.9433 16.6267L31.2147 5.61479C31.0441 5.37159 30.7599 5.25542 30.4841 5.28761C30.4004 5.2794 17.3261 5.28331 9.92669 5.28229C9.67693 5.28229 9.44216 5.40229 9.29513 5.60417L1.27763 16.6165C0.901147 17.1336 1.27427 17.8604 1.90919 17.8604H22.3907C22.6404 17.8604 22.8753 17.7391 23.0222 17.5371L30.4816 7.29018L37.6643 17.5242C37.9127 17.8783 38.4002 17.9622 38.7527 17.7149C39.1058 17.4671 39.1912 16.9798 38.9433 16.6267ZM21.9933 16.2979H3.44443L10.3244 6.84479H28.8732L21.9933 16.2979Z" fill="white"></path><path d="M36.8262 19.2666H5.57617C5.14469 19.2666 4.79492 19.6164 4.79492 20.0479V34.1885C4.79492 34.6199 5.14469 34.9697 5.57617 34.9697H36.8262C37.2577 34.9697 37.6074 34.6199 37.6074 34.1885V20.0479C37.6074 19.6164 37.2577 19.2666 36.8262 19.2666ZM6.3575 20.8291H23.3888V33.4072H6.3575V20.8291ZM28.7012 33.4072V27.8642C28.7012 26.859 29.493 26.0412 30.498 26.0412C31.5033 26.0412 32.2949 26.859 32.2949 27.8642V33.4072H28.7012ZM36.0449 33.4072H33.8574V27.8642C33.8574 25.9974 32.3648 24.4787 30.498 24.4787C28.6313 24.4787 27.1387 25.9974 27.1387 27.8642V33.4072H24.9512V20.8291H36.0449V33.4072Z" fill="white"></path><path d="M9.28606 14.8798C9.5038 14.8798 9.72051 14.7893 9.87497 14.6123L13.642 10.297C13.9257 9.97188 13.8922 9.47836 13.5672 9.19461C13.2422 8.91102 12.7486 8.9443 12.4648 9.26945L8.69778 13.5848C8.2538 14.0935 8.62395 14.8798 9.28606 14.8798Z" fill="white"></path><path d="M13.7509 14.8798C13.9686 14.8798 14.1854 14.7893 14.3398 14.6123L18.1068 10.297C18.3905 9.97188 18.357 9.47836 18.0319 9.19461C17.707 8.91102 17.2134 8.9443 16.9296 9.26945L13.1626 13.5848C12.7186 14.0935 13.0888 14.8798 13.7509 14.8798Z" fill="white"></path><path d="M18.2138 14.8799C18.4316 14.8799 18.6483 14.7893 18.8027 14.6124L22.5696 10.297C22.8534 9.97191 22.8198 9.4784 22.4948 9.19465C22.1698 8.9109 21.6763 8.94441 21.3926 9.26949L17.6256 13.5849C17.1815 14.0936 17.5516 14.8799 18.2138 14.8799Z" fill="white"></path><path d="M19.6387 24.0322H10.2637C9.83219 24.0322 9.48242 24.3821 9.48242 24.8135V29.501C9.48242 29.9324 9.83219 30.2822 10.2637 30.2822H19.6387C20.0702 30.2822 20.4199 29.9324 20.4199 29.501V24.8135C20.4198 24.3821 20.0702 24.0322 19.6387 24.0322ZM18.8574 28.7197H11.0449V25.5947H18.8574V28.7197Z" fill="white"></path></svg>