<svg xmlns="http://www.w3.org/2000/svg" width="40" height="33" viewBox="0 0 40 33" fill="none"><path d="M39.9789 0.5H17.3988C17.3042 0.500055 17.2108 0.532329 17.1252 0.594537C17.0396 0.656746 16.9638 0.747368 16.9033 0.859987L13.6776 6.85979C13.5991 7.00578 13.5491 7.1834 13.5334 7.37185C13.5177 7.5603 13.537 7.75177 13.589 7.92384C13.641 8.09592 13.7235 8.24147 13.827 8.34346C13.9304 8.44545 14.0504 8.49966 14.173 8.49973H16.4439L0.766253 38.8737C0.67687 39.0461 0.626893 39.2596 0.624143 39.4808C0.621394 39.7019 0.666028 39.9182 0.751059 40.0959C0.83609 40.2735 0.95672 40.4024 1.09407 40.4625C1.23141 40.5225 1.37773 40.5103 1.51011 40.4277L4.34036 38.6727L5.33002 40.2057C5.41928 40.3442 5.53283 40.4392 5.65657 40.4786C5.78032 40.5181 5.90882 40.5004 6.02613 40.4277L8.85639 38.6727L9.84604 40.2057C9.9353 40.3442 10.0488 40.4392 10.1726 40.4786C10.2963 40.5181 10.4248 40.5004 10.5422 40.4277L13.3724 38.6727L14.3621 40.2057C14.4513 40.3442 14.5649 40.4392 14.6886 40.4786C14.8124 40.5181 14.9409 40.5004 15.0582 40.4277L17.8884 38.6727L18.8781 40.2057C18.9422 40.3051 19.0192 40.3825 19.1039 40.4328C19.1887 40.483 19.2793 40.505 19.3699 40.4972C19.4605 40.4895 19.549 40.4522 19.6297 40.3878C19.7104 40.3235 19.7814 40.2335 19.8381 40.1237L21.709 36.4988H39.9789C40.15 36.4988 40.3141 36.3934 40.4351 36.2059C40.5561 36.0184 40.624 35.764 40.624 35.4988V1.49997C40.624 1.23476 40.5561 0.980414 40.4351 0.792883C40.3141 0.605353 40.15 0.5 39.9789 0.5ZM5.73259 37.9987L4.95196 36.7888C4.8627 36.6502 4.74915 36.5553 4.6254 36.5158C4.50166 36.4763 4.37316 36.4941 4.25585 36.5668L3.30232 37.1588L18.0955 8.49973H20.96L5.73259 37.9987ZM10.2486 37.9987L9.46798 36.7888C9.37872 36.6502 9.26517 36.5553 9.14143 36.5158C9.01768 36.4763 8.88918 36.4941 8.77187 36.5668L7.81899 37.1578L22.6115 8.49973H25.476L10.2486 37.9987ZM14.7646 37.9987L13.984 36.7888C13.8947 36.6502 13.7812 36.5553 13.6574 36.5158C13.5337 36.4763 13.4052 36.4941 13.2879 36.5668L12.335 37.1578L27.1276 8.49973H29.992L14.7646 37.9987ZM19.2807 37.9987L18.5 36.7888C18.4108 36.6502 18.2972 36.5553 18.1735 36.5158C18.0497 36.4763 17.9212 36.4941 17.8039 36.5668L16.851 37.1578L31.6436 8.49973H34.508L19.2807 37.9987ZM29.6611 21.0893L30.5701 19.3264L36.7531 28.913V30.499H35.7299L29.6611 21.0893ZM33.9055 30.499H24.8089L28.8527 22.6633L33.9055 30.499ZM31.381 17.7584L36.1596 8.49973H36.7531V26.0851L31.381 17.7584ZM39.3337 34.4988H22.7412L23.7735 32.4989H37.3983C37.5694 32.4989 37.7335 32.3936 37.8545 32.206C37.9755 32.0185 38.0434 31.7642 38.0434 31.499V8.49973H39.3337V34.4988ZM39.3337 6.4998H15.5504L17.7007 2.49993H39.3337V6.4998Z" fill="white"></path></svg>