<?xml version="1.0" encoding="UTF-8"?>
<svg xmlns="http://www.w3.org/2000/svg" version="1.1" viewBox="0 0 800 800">
  <!-- Generator: Adobe Illustrator 28.7.1, SVG Export Plug-In . SVG Version: 1.2.0 Build 142)  -->
  <g>
    <g id="Layer_1">
      <path d="M799,59.7v680.6c0,15.6-6.2,30.5-17.2,41.5-11,11-25.9,17.2-41.5,17.2H59.7c-15.6,0-30.5-6.2-41.5-17.2-11-11-17.2-25.9-17.2-41.5V59.7c0-15.6,6.2-30.5,17.2-41.5C29.2,7.2,44.1,1,59.7,1h680.6c15.6,0,30.5,6.2,41.5,17.2,11,11,17.2,25.9,17.2,41.5ZM235.7,306.1h-117.4v375.5h117.4v-375.5ZM246.3,177c0-8.9-1.6-17.7-5-25.9-3.3-8.2-8.3-15.7-14.5-22-6.2-6.3-13.7-11.4-21.8-14.8-8.2-3.5-17-5.3-25.8-5.3h-2.1c-18.1,0-35.4,7.2-48.1,19.9-12.8,12.8-19.9,30.1-19.9,48.1s7.2,35.4,19.9,48.1c12.8,12.8,30.1,19.9,48.1,19.9,8.9.2,17.7-1.3,26-4.5,8.3-3.2,15.9-8,22.3-14.1s11.6-13.5,15.2-21.6c3.6-8.1,5.6-16.9,5.8-25.7v-2.1ZM681.6,453.5c0-112.9-71.8-156.8-143.2-156.8-23.4-1.2-46.6,3.8-67.5,14.4-20.8,10.6-38.5,26.5-51.3,46.1h-3.3v-51.2h-110.3v375.5h117.4v-199.7c-1.7-20.5,4.7-40.8,17.9-56.5,13.2-15.7,32-25.6,52.5-27.5h4.5c37.3,0,65,23.5,65,82.6v201.1h117.4l.9-228.1Z"/>
    </g>
  </g>
</svg>