<svg xmlns="http://www.w3.org/2000/svg" width="40" height="40" viewBox="0 0 40 40" fill="none"><g clip-path="url(#clip0_3856_7010)"><path d="M38.5822 31.4333C38.1499 28.8414 36.3326 26.7147 33.8398 25.8836L28.3043 24.0386V23.2158H27.0177V24.3409L22.5147 32.7848L18.0116 24.3416V23.2158H16.725V24.6632L21.8714 34.3126V35.4384H14.1518V36.725H21.8714V38.6549H12.3075L12.8209 34.5474C13.6501 34.0019 14.1518 33.0814 14.1518 32.0701V31.5786H12.8653V32.0701C12.8653 32.7121 12.5082 33.2898 11.9344 33.5767L11.6263 33.7305L11.0106 38.6549H6.54811L7.28082 34.2573L6.01161 34.0463L5.0293 39.9415H39.9994L38.5822 31.4333ZM23.158 38.6549V36.725H30.8775V35.4384H23.158V34.3126L27.973 25.2847L30.8775 26.2522V32.0695C30.8775 33.0807 31.3792 34.0013 32.2085 34.5474L32.7218 38.6549H23.158ZM34.0187 38.6549L33.403 33.7305L33.0949 33.5767C32.5211 33.2892 32.1641 32.7121 32.1641 32.0701V26.6812L33.4326 27.1039C35.4725 27.7845 36.9592 29.5246 37.313 31.6449L38.4806 38.6549H34.0187Z" fill="white"></path><path d="M11.5788 14.2101C11.5788 15.8608 12.8333 17.2091 14.4364 17.3905C14.7644 18.5195 15.3704 19.5546 16.2247 20.4089L18.7329 22.9171C19.3402 23.5243 20.1482 23.8595 21.0076 23.8595H24.0221C24.8815 23.8595 25.6895 23.5243 26.2968 22.9171L28.805 20.4089C29.6593 19.5546 30.2646 18.5195 30.5933 17.3905C32.1964 17.2091 33.4508 15.8608 33.4508 14.2101C33.4508 13.4832 33.1993 12.8193 32.7908 12.2802H34.0941V8.42043H32.0722C31.5608 4.62307 28.7889 1.44584 25.088 0.420435V0.0576172H19.9417V0.420435C16.2414 1.44584 13.4695 4.62307 12.9574 8.42043H10.9355V12.2802H12.2389C11.8304 12.8193 11.5788 13.4832 11.5788 14.2101ZM12.8654 14.2101C12.8654 13.3725 13.4052 12.6649 14.152 12.3986V15.4047C14.152 15.615 14.1642 15.8235 14.1823 16.0306C13.4199 15.7733 12.8654 15.0586 12.8654 14.2101ZM29.5911 15.4047C29.5911 16.9518 28.9883 18.405 27.8953 19.4992L25.3871 22.0074C25.0224 22.3722 24.538 22.5729 24.0221 22.5729H21.0076C20.4917 22.5729 20.0066 22.3722 19.6425 22.0074L17.1343 19.4992C16.0414 18.4056 15.4386 16.9518 15.4386 15.4053V12.2802H29.5911V15.4047ZM30.8474 16.0306C30.8654 15.8235 30.8777 15.6157 30.8777 15.4047V12.3986C31.6245 12.6649 32.1642 13.3725 32.1642 14.2101C32.1642 15.0586 31.6097 15.7733 30.8474 16.0306ZM19.9417 1.75977V7.13385H21.2282V1.3442H23.8014V7.13385H25.088V1.75977C28.069 2.72664 30.2948 5.32298 30.7786 8.42043H14.2511C14.7355 5.32233 16.9606 2.72664 19.9417 1.75977ZM12.2221 10.9936V9.70702H32.8075V10.9936H12.2221Z" fill="white"></path><path d="M27.6616 5.84766H26.375V7.13424H27.6616V5.84766Z" fill="white"></path><path d="M18.6557 5.84766H17.3691V7.13424H18.6557V5.84766Z" fill="white"></path><path d="M5.90544 32.8652H9.53297L9.86555 31.2067C10.0785 31.1321 10.2869 31.0459 10.4895 30.9501L11.8964 31.8873L14.4612 29.3225L13.524 27.9157C13.6198 27.7137 13.706 27.5046 13.7806 27.2917L15.4384 26.9591V23.3315L13.78 22.999C13.6597 22.6587 13.513 22.3306 13.34 22.0205L12.2155 22.6464C12.404 22.9842 12.5545 23.3502 12.6632 23.7323L12.7713 24.1093L14.1518 24.3859V25.9047L12.7713 26.1813L12.6632 26.5583C12.5545 26.9411 12.404 27.3065 12.2155 27.6442L12.0244 27.9871L12.8041 29.1566L11.7305 30.2302L10.561 29.4506L10.2181 29.6416C9.88035 29.8301 9.51432 29.9806 9.1322 30.0893L8.75523 30.1968L8.47861 31.5786H6.9598L6.68318 30.1981L6.30621 30.0906C5.92345 29.9819 5.55806 29.8314 5.22033 29.6429L4.87746 29.4518L3.70795 30.2315L2.26118 28.7854L1.35156 29.695L3.54326 31.8873L4.95015 30.9501C5.15214 31.0459 5.36121 31.1321 5.57414 31.2067L5.90544 32.8652Z" fill="white"></path><path d="M2.09842 28.2708L3.2229 27.6448C3.03442 27.3071 2.88389 26.9411 2.77517 26.559L2.6671 26.182L1.28659 25.906V24.3872L2.6671 24.1106L2.77517 23.7336C2.88389 23.3508 3.03442 22.9855 3.2229 22.6477L3.41396 22.3049L2.63429 21.1353L3.70794 20.0617L4.87745 20.8414L5.22033 20.6503C5.55806 20.4618 5.92409 20.3113 6.30621 20.2026L6.68318 20.0951L6.95979 18.7133H8.47861L8.75523 20.0939L9.1322 20.2013C9.51496 20.31 9.88035 20.4605 10.2181 20.649L10.561 20.8401L11.7305 20.0604L13.1772 21.5065L14.0868 20.5969L11.8951 18.4046L10.4883 19.3418C10.2863 19.246 10.0772 19.1598 9.86427 19.0852L9.53297 17.4268H5.90544L5.57285 19.0852C5.35992 19.1598 5.1515 19.246 4.94886 19.3418L3.54198 18.4046L0.977163 20.9694L1.91444 22.3763C1.81859 22.5783 1.73239 22.7873 1.65777 23.0003L0 23.3328V26.9604L1.65841 27.293C1.77871 27.6326 1.92538 27.9607 2.09842 28.2708Z" fill="white"></path><path d="M7.72037 21.9297C5.94681 21.9297 4.50391 23.3726 4.50391 25.1462C4.50391 26.9197 5.94681 28.3626 7.72037 28.3626C9.49394 28.3626 10.9368 26.9197 10.9368 25.1462C10.9368 23.3726 9.49394 21.9297 7.72037 21.9297ZM7.72037 27.076C6.65637 27.076 5.79049 26.2102 5.79049 25.1462C5.79049 24.0821 6.65637 23.2163 7.72037 23.2163C8.78438 23.2163 9.65026 24.0821 9.65026 25.1462C9.65026 26.2102 8.78438 27.076 7.72037 27.076Z" fill="white"></path></g><defs><clipPath id="clip0_3856_7010"><rect width="40" height="40" fill="white"></rect></clipPath></defs></svg>