<?xml version="1.0" encoding="UTF-8"?>
<svg xmlns="http://www.w3.org/2000/svg" version="1.1" viewBox="0 0 800 800">
  <!-- Generator: Adobe Illustrator 28.7.1, SVG Export Plug-In . SVG Version: 1.2.0 Build 142)  -->
  <g>
    <g id="Capa_1">
      <path d="M800,389.7c0,215.2-175.8,389.7-392.8,389.7s-133.5-17.6-189.8-48.4L0,800l70.9-209.1c-35.7-58.7-56.3-127.6-56.3-201.2C14.6,174.5,190.4,0,407.3,0c216.9,0,392.7,174.5,392.7,389.7ZM407.2,62.1c-182.1,0-330.2,147-330.2,327.6s23.4,138.1,62.9,192.1l-41.2,121.6,126.8-40.3c52.2,34.2,114.6,54.2,181.6,54.2,182.1,0,330.2-146.9,330.2-327.6,0-180.6-148.1-327.6-330.2-327.6ZM605.6,479.5c-2.5-3.9-8.9-6.3-18.5-11.1-9.6-4.8-57-27.9-65.8-31-8.9-3.2-15.3-4.8-21.7,4.7-6.3,9.6-24.8,31.1-30.5,37.5-5.6,6.4-11.2,7.2-20.8,2.5-9.6-4.9-40.7-14.9-77.5-47.4-28.6-25.4-47.9-56.6-53.5-66.2-5.7-9.5-.6-14.7,4.2-19.5,4.3-4.3,9.6-11.2,14.5-16.8,4.8-5.6,6.4-9.5,9.6-15.9,3.2-6.4,1.6-11.9-.8-16.8-2.4-4.8-21.6-51.8-29.7-70.9-8-19.1-16-15.9-21.7-15.9s-12-.8-18.4-.8-16.9,2.3-25.6,11.9-33.7,32.7-33.7,79.7,34.5,92.4,39.3,98.8c4.9,6.3,66.6,106,164.5,144.2,97.9,38.2,97.9,25.5,115.5,23.8,17.7-1.6,57-23.1,65-45.4,8-22.4,8-41.6,5.6-45.5Z"/>
    </g>
  </g>
</svg>